<mxfile host="app.diagrams.net" modified="2021-08-28T18:44:37.703Z" agent="5.0 (Windows NT 10.0; Win64; x64) AppleWebKit/537.36 (KHTML, like Gecko) Chrome/92.0.4515.159 Safari/537.36" etag="cxDvJ8tuC2uvD3RQYM2F" version="15.0.3" type="github">
  <diagram id="AhraE-Y8tU6OU4Mj4pjH" name="Page-1">
    <mxGraphModel dx="868" dy="393" grid="1" gridSize="10" guides="1" tooltips="1" connect="1" arrows="1" fold="1" page="1" pageScale="1" pageWidth="850" pageHeight="1100" background="none" math="0" shadow="0">
      <root>
        <mxCell id="0" />
        <mxCell id="1" parent="0" />
        <mxCell id="ejN5GzHtwr6tlqfuv_De-18" value="" style="group" vertex="1" connectable="0" parent="1">
          <mxGeometry x="240" y="170" width="520" height="490" as="geometry" />
        </mxCell>
        <mxCell id="ejN5GzHtwr6tlqfuv_De-17" value="" style="rounded=0;whiteSpace=wrap;html=1;strokeColor=#000000;fillColor=#FFFFFF;gradientColor=none;" vertex="1" parent="ejN5GzHtwr6tlqfuv_De-18">
          <mxGeometry width="520" height="490" as="geometry" />
        </mxCell>
        <mxCell id="ejN5GzHtwr6tlqfuv_De-8" value="" style="group" vertex="1" connectable="0" parent="ejN5GzHtwr6tlqfuv_De-18">
          <mxGeometry x="10" y="160" width="490" height="310" as="geometry" />
        </mxCell>
        <mxCell id="ejN5GzHtwr6tlqfuv_De-7" value="" style="rounded=0;whiteSpace=wrap;html=1;strokeColor=#6c8ebf;fillOpacity=100;strokeOpacity=100;container=0;fillColor=#CCCCFF;" vertex="1" collapsed="1" parent="ejN5GzHtwr6tlqfuv_De-8">
          <mxGeometry x="50" width="440" height="310" as="geometry">
            <mxRectangle x="190" y="40" width="402.5" height="310" as="alternateBounds" />
          </mxGeometry>
        </mxCell>
        <mxCell id="ejN5GzHtwr6tlqfuv_De-1" value="" style="shape=image;html=1;verticalAlign=top;verticalLabelPosition=bottom;labelBackgroundColor=#ffffff;imageAspect=0;aspect=fixed;image=https://cdn4.iconfinder.com/data/icons/logos-and-brands/512/315_Spotify_logo-128.png" vertex="1" parent="ejN5GzHtwr6tlqfuv_De-8">
          <mxGeometry x="100" y="30" width="100" height="100" as="geometry" />
        </mxCell>
        <mxCell id="ejN5GzHtwr6tlqfuv_De-2" value="" style="outlineConnect=0;dashed=0;verticalLabelPosition=bottom;verticalAlign=top;align=center;html=1;shape=mxgraph.aws3.s3;fillColor=#E05243;gradientColor=none;" vertex="1" parent="ejN5GzHtwr6tlqfuv_De-8">
          <mxGeometry x="111.75" y="190" width="76.5" height="93" as="geometry" />
        </mxCell>
        <mxCell id="ejN5GzHtwr6tlqfuv_De-3" value="" style="shape=image;html=1;verticalAlign=top;verticalLabelPosition=bottom;labelBackgroundColor=#ffffff;imageAspect=0;aspect=fixed;image=https://cdn4.iconfinder.com/data/icons/logos-and-brands/512/267_Python_logo-128.png" vertex="1" parent="ejN5GzHtwr6tlqfuv_De-8">
          <mxGeometry y="90" width="90" height="90" as="geometry" />
        </mxCell>
        <mxCell id="ejN5GzHtwr6tlqfuv_De-4" value="&lt;font style=&quot;font-size: 14px&quot;&gt;Spotify API to retrieve data&lt;/font&gt;" style="rounded=0;whiteSpace=wrap;html=1;" vertex="1" parent="ejN5GzHtwr6tlqfuv_De-8">
          <mxGeometry x="225" y="60" width="165" height="60" as="geometry" />
        </mxCell>
        <mxCell id="ejN5GzHtwr6tlqfuv_De-5" value="&lt;font style=&quot;font-size: 14px&quot;&gt;Data saved in S3 datalake&lt;/font&gt;" style="rounded=0;whiteSpace=wrap;html=1;" vertex="1" parent="ejN5GzHtwr6tlqfuv_De-8">
          <mxGeometry x="225" y="200" width="165" height="60" as="geometry" />
        </mxCell>
        <mxCell id="ejN5GzHtwr6tlqfuv_De-6" value="" style="endArrow=classic;html=1;exitX=0.461;exitY=1;exitDx=0;exitDy=0;exitPerimeter=0;entryX=0.467;entryY=-0.033;entryDx=0;entryDy=0;entryPerimeter=0;" edge="1" parent="ejN5GzHtwr6tlqfuv_De-8" source="ejN5GzHtwr6tlqfuv_De-4" target="ejN5GzHtwr6tlqfuv_De-5">
          <mxGeometry width="50" height="50" relative="1" as="geometry">
            <mxPoint x="260" y="180" as="sourcePoint" />
            <mxPoint x="330" y="160" as="targetPoint" />
          </mxGeometry>
        </mxCell>
        <mxCell id="ejN5GzHtwr6tlqfuv_De-9" value="" style="outlineConnect=0;dashed=0;verticalLabelPosition=bottom;verticalAlign=top;align=center;html=1;shape=mxgraph.aws3.lambda_function;fillColor=#F58534;gradientColor=none;rounded=0;strokeColor=#6C8EBF;" vertex="1" parent="ejN5GzHtwr6tlqfuv_De-18">
          <mxGeometry x="300" y="10" width="55" height="60" as="geometry" />
        </mxCell>
        <mxCell id="ejN5GzHtwr6tlqfuv_De-10" value="" style="outlineConnect=0;dashed=0;verticalLabelPosition=bottom;verticalAlign=top;align=center;html=1;shape=mxgraph.aws3.cloudwatch;fillColor=#759C3E;gradientColor=none;rounded=0;strokeColor=#6c8ebf;" vertex="1" parent="ejN5GzHtwr6tlqfuv_De-18">
          <mxGeometry x="80" y="10" width="70" height="70" as="geometry" />
        </mxCell>
        <mxCell id="ejN5GzHtwr6tlqfuv_De-12" value="&lt;font style=&quot;font-size: 14px&quot;&gt;Lambda Function with Python Code&lt;/font&gt;" style="rounded=0;whiteSpace=wrap;html=1;" vertex="1" parent="ejN5GzHtwr6tlqfuv_De-18">
          <mxGeometry x="230" y="90" width="165" height="60" as="geometry" />
        </mxCell>
        <mxCell id="ejN5GzHtwr6tlqfuv_De-13" value="&lt;font style=&quot;font-size: 14px&quot;&gt;Cloudwatch Alarm&amp;nbsp;&lt;br&gt;(weekly trigger)&lt;br&gt;&lt;/font&gt;" style="rounded=0;whiteSpace=wrap;html=1;" vertex="1" parent="ejN5GzHtwr6tlqfuv_De-18">
          <mxGeometry x="30" y="90" width="165" height="60" as="geometry" />
        </mxCell>
        <mxCell id="ejN5GzHtwr6tlqfuv_De-15" value="" style="endArrow=classic;html=1;fontColor=#99CCFF;exitX=0.5;exitY=1;exitDx=0;exitDy=0;" edge="1" parent="ejN5GzHtwr6tlqfuv_De-18" source="ejN5GzHtwr6tlqfuv_De-12">
          <mxGeometry width="50" height="50" relative="1" as="geometry">
            <mxPoint x="480" y="120" as="sourcePoint" />
            <mxPoint x="313" y="220" as="targetPoint" />
          </mxGeometry>
        </mxCell>
        <mxCell id="ejN5GzHtwr6tlqfuv_De-16" value="" style="endArrow=classic;html=1;fontColor=#99CCFF;entryX=0;entryY=0.5;entryDx=0;entryDy=0;exitX=1;exitY=0.5;exitDx=0;exitDy=0;" edge="1" parent="ejN5GzHtwr6tlqfuv_De-18" source="ejN5GzHtwr6tlqfuv_De-13" target="ejN5GzHtwr6tlqfuv_De-12">
          <mxGeometry width="50" height="50" relative="1" as="geometry">
            <mxPoint x="160" y="240" as="sourcePoint" />
            <mxPoint x="210" y="190" as="targetPoint" />
          </mxGeometry>
        </mxCell>
        <mxCell id="ejN5GzHtwr6tlqfuv_De-51" value="&lt;font style=&quot;font-size: 14px&quot;&gt;Terraform apply&lt;br&gt;(deployment)&lt;br&gt;&lt;/font&gt;" style="rounded=0;whiteSpace=wrap;html=1;" vertex="1" parent="1">
          <mxGeometry x="20" y="380" width="165" height="60" as="geometry" />
        </mxCell>
        <mxCell id="ejN5GzHtwr6tlqfuv_De-52" value="" style="endArrow=classic;html=1;fontColor=#99CCFF;exitX=1;exitY=0.5;exitDx=0;exitDy=0;" edge="1" parent="1" source="ejN5GzHtwr6tlqfuv_De-51">
          <mxGeometry width="50" height="50" relative="1" as="geometry">
            <mxPoint x="320" y="410" as="sourcePoint" />
            <mxPoint x="240" y="410" as="targetPoint" />
          </mxGeometry>
        </mxCell>
      </root>
    </mxGraphModel>
  </diagram>
</mxfile>
